
<svg xmlns="http://www.w3.org/2000/svg"  viewBox="0 0 100 100" width="512px" height="512px"><path fill="#c8ede6" d="M87.2,55.6c0.3-0.6,0.6-1.3,0.8-1.9c2.6-7.8-1.3-17.1-9.7-19.3c-0.9-11.4-8.9-19.2-17.9-20.5 c-10.3-1.5-19.8,5-23,15.5c-3.8-1.3-7.5-1.2-11,0.9c-1.6,0.7-3,1.8-4.3,3.2c-1.9,2.1-3.1,4.7-3.7,7.5c-0.7,0.1-1.5,0.2-2.2,0.5 c-4,1.4-6.6,4.4-7.3,8.9c-0.4,2.8,0.4,5.6,0.9,6.7c1.9,4.5,6.4,7,11,6.3c0.2,0,0.6,0.1,0.8,0.2c0.2,7.1,3.7,13.4,8.9,17 c8.3,5.8,19,4,25.8-3.9c2.9,3,6.3,4.4,10.4,3.9c4-0.5,7.1-2.7,9.4-6.3c1.1,0.3,2.1,0.7,3.1,0.8c4,0.4,7.3-1.2,9.7-4.8 c0.1-0.1,0.2-0.2,0.3-0.3c0.3-0.8,0.7-1.6,1-2.4c0.2-1.2,0.4-2.4,0.4-3.6C90.7,60.5,89.4,57.5,87.2,55.6z"/><path fill="#fdfcef" d="M65.5,35.4c0,0-11.7,0-11.8,0c-2.7,0-4.9-2.2-4.9-4.9c0-2.4,1.7-4.3,3.9-4.8c0-0.2,0-0.4,0-0.6 c0-2.8,2.3-5.1,5.1-5.1c1.7,0,3.1,0.8,4,2c0.2-3.1,3-5.5,6.3-5.1c2.4,0.3,4.3,2.1,4.8,4.5c0.1,0.8,0.1,1.5,0,2.2 c0.6-0.7,1.5-1.1,2.6-1.1c1.8,0,3.4,1.4,3.5,3.3c0.8-0.2,1.8-0.2,2.7,0.2c1.8,0.7,3.2,2.4,3.2,4.4c0.1,2.8-2.1,5.1-4.9,5.1 c-0.2,0-0.9,0-1.1,0H68.7"/><path fill="#472b29" d="M53.7,35.9h11.8c0.3,0,0.5-0.2,0.5-0.5s-0.2-0.5-0.5-0.5H53.7c-2.4,0-4.4-2-4.4-4.4c0-2.1,1.5-3.9,3.5-4.3 c0.3-0.1,0.4-0.3,0.4-0.6c0-0.2,0-0.4,0-0.6c0-2.5,2-4.6,4.6-4.6c1.4,0,2.8,0.7,3.6,1.8c0.1,0.2,0.3,0.2,0.5,0.2 c0.2-0.1,0.3-0.2,0.4-0.4c0.1-1.4,0.8-2.7,1.8-3.5c1.1-0.9,2.5-1.3,3.9-1.1c2.2,0.3,4,1.9,4.4,4.1c0.1,0.7,0.1,1.3,0,2 c0,0.2,0.1,0.4,0.3,0.5c0.2,0.1,0.4,0.1,0.6-0.1c0.6-0.6,1.4-1,2.2-1c1.6,0,2.9,1.2,3,2.8c0,0.1,0.1,0.3,0.2,0.4 c0.1,0.1,0.3,0.1,0.4,0.1c0.8-0.2,1.6-0.1,2.4,0.2c1.7,0.6,2.8,2.2,2.9,3.9c0,1.2-0.4,2.3-1.2,3.2c-0.8,0.9-2,1.3-3.2,1.3H68.7 c-0.3,0-0.5,0.2-0.5,0.5s0.2,0.5,0.5,0.5h11.3c1.5,0,2.9-0.6,3.9-1.7c1-1.1,1.6-2.5,1.5-4c-0.1-2.1-1.5-4.1-3.6-4.8 c-0.8-0.3-1.6-0.4-2.5-0.3c-0.4-1.8-2-3.2-3.9-3.2c-0.7,0-1.4,0.2-1.9,0.5c0-0.4,0-0.8-0.1-1.2c-0.5-2.6-2.6-4.6-5.2-4.9 c-1.7-0.2-3.3,0.3-4.6,1.3c-1,0.8-1.7,2-2,3.2c-1-0.9-2.3-1.4-3.7-1.4c-3.1,0-5.6,2.5-5.6,5.6c0,0.1,0,0.2,0,0.2 c-2.3,0.7-3.8,2.8-3.8,5.2C48.4,33.5,50.8,35.9,53.7,35.9z"/><path fill="#fdfcef" d="M68.3,24.7c1.8-0.1,3.4,1.1,3.5,2.8c0,0.2,0,0.4,0,0.6c0.3-0.4,0.9-0.7,1.5-0.7c1.1-0.1,2,0.6,2.2,1.6 c0.2-0.1,0.4-0.1,0.6-0.1c1.6-0.1,2.9,1,3,2.4"/><path fill="#472b29" d="M79.1,31.6C79.1,31.6,79.1,31.6,79.1,31.6c0.2,0,0.3-0.1,0.3-0.3c-0.1-1.6-1.6-2.8-3.3-2.7 c-0.1,0-0.3,0-0.4,0.1c-0.3-1-1.3-1.6-2.4-1.6c-0.4,0-0.8,0.2-1.2,0.4c0,0,0,0,0-0.1c-0.1-1.8-1.8-3.2-3.7-3 c-0.1,0-0.2,0.1-0.2,0.3c0,0.1,0.1,0.3,0.3,0.2c1.7-0.1,3.1,1,3.2,2.6c0,0.2,0,0.4,0,0.6c0,0.1,0,0.2,0.1,0.3s0.2,0,0.3-0.1 c0.3-0.4,0.8-0.6,1.3-0.6c1,0,1.8,0.6,1.9,1.4c0,0.1,0.1,0.1,0.1,0.2c0.1,0,0.1,0.1,0.2,0c0.2-0.1,0.4-0.1,0.6-0.1 c1.4-0.1,2.7,0.9,2.8,2.2C78.8,31.5,78.9,31.6,79.1,31.6z"/><path fill="#fdfcef" d="M51.8,26.3c1.7-0.8,3.7-0.2,4.4,1.3c0.1,0.2,0.2,0.4,0.2,0.6"/><path fill="#472b29" d="M56.4,28.4C56.4,28.4,56.4,28.4,56.4,28.4c0.2,0,0.3-0.2,0.2-0.3c0-0.2-0.1-0.4-0.2-0.6 c-0.8-1.6-2.9-2.2-4.7-1.4c-0.1,0.1-0.2,0.2-0.1,0.3c0.1,0.1,0.2,0.2,0.3,0.1c1.6-0.7,3.4-0.2,4.1,1.1c0.1,0.2,0.1,0.3,0.2,0.5 C56.1,28.3,56.2,28.4,56.4,28.4z"/><g><path fill="#fdfcef" d="M31.2,79.3c1.9,0,3.5,0,3.5,0c2.1,0,3.8-1.7,3.8-3.7c0-1.8-1.3-3.3-3-3.7c0-0.2,0-0.3,0-0.5 c0-2.1-1.8-3.9-4-3.9c-1.3,0-2.4,0.6-3.2,1.5c-0.2-2.4-2.4-4.2-4.9-3.9c-1.9,0.2-3.4,1.6-3.7,3.4c-0.1,0.6-0.1,1.1,0,1.7 c-0.5-0.5-1.2-0.9-2-0.9c-1.4,0-2.6,1.1-2.7,2.5c-0.7-0.1-1.4-0.1-2.1,0.1c-1.4,0.5-2.5,1.9-2.5,3.4c-0.1,2.1,1.7,3.9,3.8,3.9 c0.2,0,0.7,0,0.9,0h7.9 M24.7,79.3h0.4"/><path fill="#472b29" d="M34.7,79.8h-3.5c-0.3,0-0.5-0.2-0.5-0.5s0.2-0.5,0.5-0.5h3.5c1.8,0,3.3-1.5,3.3-3.2c0-1.5-1.1-2.9-2.6-3.2 c-0.3-0.1-0.4-0.3-0.4-0.6c0-0.1,0-0.3,0-0.4c0-1.9-1.6-3.4-3.5-3.4c-1.1,0-2.1,0.5-2.8,1.3c-0.1,0.2-0.3,0.2-0.5,0.2 c-0.2-0.1-0.3-0.2-0.4-0.4c-0.1-1-0.6-1.9-1.4-2.6c-0.8-0.7-1.9-1-3-0.9c-1.6,0.2-3,1.4-3.3,3c-0.1,0.5-0.1,1,0,1.5 c0,0.2-0.1,0.4-0.3,0.5c-0.2,0.1-0.4,0.1-0.6-0.1c-0.4-0.5-1-0.7-1.6-0.7c-1.2,0-2.1,0.9-2.2,2c0,0.1-0.1,0.3-0.2,0.4 c-0.1,0.1-0.3,0.1-0.4,0.1c-0.6-0.1-1.2-0.1-1.8,0.1c-1.3,0.5-2.1,1.6-2.2,2.9c0,0.9,0.3,1.7,0.9,2.3c0.6,0.7,1.5,1,2.4,1h8.8 c0.3,0,0.5,0.2,0.5,0.5s-0.2,0.5-0.5,0.5h-8.8c-1.2,0-2.3-0.5-3.1-1.3c-0.8-0.8-1.2-1.9-1.2-3.1c0.1-1.7,1.2-3.2,2.8-3.8 c0.6-0.2,1.2-0.3,1.9-0.2c0.3-1.4,1.6-2.4,3.1-2.4c0.5,0,1,0.1,1.4,0.3c0-0.2,0-0.5,0.1-0.7c0.4-2,2.1-3.6,4.2-3.8 c1.4-0.2,2.7,0.2,3.7,1.1c0.7,0.6,1.3,1.4,1.5,2.3c0.8-0.6,1.8-1,2.8-1c2.5,0,4.5,2,4.5,4.4c0,0,0,0.1,0,0.1c1.8,0.6,3,2.2,3,4 C39,77.9,37.1,79.8,34.7,79.8z M25.1,79.8h-0.4c-0.3,0-0.5-0.2-0.5-0.5s0.2-0.5,0.5-0.5h0.4c0.3,0,0.5,0.2,0.5,0.5 S25.3,79.8,25.1,79.8z"/><g><path fill="#472b29" d="M33,74C33,74,33,74,33,74c-0.2,0-0.3-0.2-0.2-0.3c0-0.2,0.1-0.3,0.2-0.5c0.6-1.2,2.3-1.7,3.7-1 c0.1,0.1,0.2,0.2,0.1,0.3c-0.1,0.1-0.2,0.2-0.3,0.1c-1.2-0.6-2.6-0.2-3.1,0.8c-0.1,0.1-0.1,0.2-0.1,0.4C33.2,73.9,33.1,74,33,74z"/></g><g><path fill="#472b29" d="M27.9,79.8h-1.1c-0.3,0-0.5-0.2-0.5-0.5s0.2-0.5,0.5-0.5h1.1c0.3,0,0.5,0.2,0.5,0.5S28.1,79.8,27.9,79.8z"/></g></g><g><path fill="#fff" d="M16.4 52H6.5C6.2 52 6 51.8 6 51.5S6.2 51 6.5 51h9.9c.3 0 .5.2.5.5S16.7 52 16.4 52zM19.5 52h-1c-.3 0-.5-.2-.5-.5s.2-.5.5-.5h1c.3 0 .5.2.5.5S19.8 52 19.5 52zM24.5 54h-9c-.3 0-.5-.2-.5-.5s.2-.5.5-.5h9c.3 0 .5.2.5.5S24.8 54 24.5 54zM13.5 54h-1c-.3 0-.5-.2-.5-.5s.2-.5.5-.5h1c.3 0 .5.2.5.5S13.8 54 13.5 54zM10.5 54h-2C8.2 54 8 53.8 8 53.5S8.2 53 8.5 53h2c.3 0 .5.2.5.5S10.8 54 10.5 54zM16.5 56h-2c-.3 0-.5-.2-.5-.5s.2-.5.5-.5h2c.3 0 .5.2.5.5S16.8 56 16.5 56zM19.5 47c-.2 0-.8 0-1 0-.3 0-.5.2-.5.5s.2.5.5.5c.2 0 .8 0 1 0 .3 0 .5-.2.5-.5S19.8 47 19.5 47zM19.5 49c-.2 0-4.8 0-5 0-.3 0-.5.2-.5.5s.2.5.5.5c.2 0 4.8 0 5 0 .3 0 .5-.2.5-.5S19.8 49 19.5 49zM24.5 51c-.2 0-2.8 0-3 0-.3 0-.5.2-.5.5s.2.5.5.5c.2 0 2.8 0 3 0 .3 0 .5-.2.5-.5S24.8 51 24.5 51z"/></g><g><path fill="#fff" d="M85.5 58h-10c-.3 0-.5-.2-.5-.5s.2-.5.5-.5h10c.3 0 .5.2.5.5S85.8 58 85.5 58zM89.5 58h-2c-.3 0-.5-.2-.5-.5s.2-.5.5-.5h2c.3 0 .5.2.5.5S89.8 58 89.5 58zM94.5 60h-10c-.3 0-.5-.2-.5-.5s.2-.5.5-.5h10c.3 0 .5.2.5.5S94.8 60 94.5 60zM82.5 60h-1c-.3 0-.5-.2-.5-.5s.2-.5.5-.5h1c.3 0 .5.2.5.5S82.8 60 82.5 60zM79.4 60h-1.9c-.3 0-.5-.2-.5-.5s.2-.5.5-.5h1.9c.3 0 .5.2.5.5S79.7 60 79.4 60zM88.5 56h-5c-.3 0-.5-.2-.5-.5s.2-.5.5-.5h5c.3 0 .5.2.5.5S88.8 56 88.5 56zM85.5 62h-2c-.3 0-.5-.2-.5-.5s.2-.5.5-.5h2c.3 0 .5.2.5.5S85.8 62 85.5 62z"/></g><g><path fill="#8889b9" d="M58.9 55.7L34.9 57 32.6 41.5 62 41.7z"/><path fill="#472b29" d="M34.9,57.7c-0.3,0-0.6-0.3-0.7-0.6L32,41.6c0-0.2,0-0.4,0.2-0.6c0.1-0.2,0.3-0.2,0.5-0.2L62,41 c0.2,0,0.4,0.1,0.5,0.3c0.1,0.2,0.2,0.4,0.1,0.6l-3.1,14.1c-0.1,0.3-0.3,0.5-0.6,0.5L34.9,57.7C34.9,57.7,34.9,57.7,34.9,57.7z M33.5,42.2l2,14l22.9-1.2l2.8-12.7L33.5,42.2z M58.9,55.7L58.9,55.7L58.9,55.7z"/><path fill="#472b29" d="M40.1,42.3C40.1,42.3,40.1,42.3,40.1,42.3l-7.5,0c-0.3,0-0.6-0.3-0.7-0.6l-0.4-2.6c-0.4-3.7-2.2-3.9-2.3-3.9 c-0.4,0-0.7-0.4-0.7-0.7c0-0.3,0.3-0.6,0.6-0.7c-0.2-0.1-0.3-0.4-0.3-0.6c0-0.4,0.4-0.7,0.8-0.6l6.9,0.5c0,0,1.5,0,2.8,1.3 c1.1,1.1,1.5,2.8,1.4,4.9l0,2.2c0,0.2-0.1,0.4-0.2,0.5C40.5,42.2,40.3,42.3,40.1,42.3z M33.3,40.8l6.2,0l0-1.6 c0.1-1.8-0.3-3.1-1.1-3.9c-0.8-0.8-1.8-0.9-1.8-0.9L30.2,34c1,0.4,2.4,1.5,2.8,4.9L33.3,40.8z"/><path fill="#ef9922" d="M29.7,32.6h-2.5c-0.5,0-0.9,0.4-0.9,0.9v0.6c0.1,0.5,0.4,0.7,0.9,0.7h2.5V32.6z"/><path fill="#472b29" d="M29.7,35.2h-2.5c-1,0-1.2-0.7-1.3-1l0-0.6c0-0.3,0.1-0.6,0.3-0.9c0.2-0.3,0.6-0.4,1-0.4h2.5 c0.2,0,0.4,0.2,0.4,0.4v2.2C30.1,35,29.9,35.2,29.7,35.2z M27.3,33c-0.2,0-0.3,0.1-0.4,0.2c-0.1,0.1-0.1,0.2-0.1,0.3l0,0.6 c0,0.1,0,0.3,0.5,0.3h2.1V33H27.3z"/><path fill="#8889b9" d="M41.1,64.2c0.3,0.3,0.4,0.7,0.5,1.1c0.1,1.2-0.9,2.3-2.2,2.5c-1.3,0.1-2.5-0.7-2.7-1.9 c-0.1-0.8,0.3-1.5,0.9-1.9"/><path fill="#472b29" d="M39.1,68.2c-1.4,0-2.6-1-2.8-2.3c-0.1-0.9,0.3-1.7,1-2.3c0.2-0.1,0.4-0.1,0.5,0.1c0.1,0.2,0.1,0.4-0.1,0.5 c-0.5,0.4-0.8,1-0.7,1.6c0.1,1,1.1,1.7,2.3,1.6c1.1-0.1,2-1,1.9-2.1c0-0.3-0.2-0.6-0.4-0.9c-0.1-0.2-0.1-0.4,0-0.5 c0.2-0.1,0.4-0.1,0.5,0c0.3,0.4,0.5,0.8,0.6,1.3c0.2,1.4-1,2.7-2.5,2.9C39.3,68.2,39.2,68.2,39.1,68.2z"/><path fill="#f1bc19" d="M40.2,65.7C39,66.6,38,66.4,38,66.4l-0.4-4.1h3.5C41.1,62.3,41.3,64.8,40.2,65.7z"/><path fill="#472b29" d="M38.2,66.8c-0.2,0-0.3,0-0.3,0c-0.2,0-0.3-0.2-0.3-0.3l-0.4-4.1c0-0.1,0-0.2,0.1-0.3 c0.1-0.1,0.2-0.1,0.3-0.1h3.5c0.1,0,0.3,0.1,0.3,0.2c0.1,0.1,0.3,2.7-1.1,3.8l0,0C39.5,66.7,38.7,66.8,38.2,66.8z M38.1,62.7 l0.3,3.4c0.3,0,0.9-0.1,1.6-0.7l0,0c0.7-0.6,0.8-1.9,0.8-2.7H38.1z M40.2,65.7L40.2,65.7L40.2,65.7z"/><path fill="#fdfcee" d="M39.3,65c-0.3,0-0.5-0.2-0.5-0.5c0-0.3,0.2-0.5,0.5-0.5c0.3,0,0.5,0.2,0.5,0.5C39.8,64.8,39.6,65,39.3,65z"/><path fill="#472b29" d="M39.3,64.2c0.2,0,0.3,0.1,0.3,0.3s-0.1,0.3-0.3,0.3S39,64.6,39,64.5S39.1,64.2,39.3,64.2 M39.3,63.7 c-0.4,0-0.8,0.3-0.8,0.8s0.3,0.8,0.8,0.8s0.8-0.3,0.8-0.8S39.7,63.7,39.3,63.7L39.3,63.7z"/><path fill="#c0e5e4" d="M56.1,64.3c0.2,0.3,0.4,0.8,0.4,1.2c0,1.3-1.1,2.3-2.5,2.3c-1.4,0-2.5-1-2.5-2.3c0-0.8,0.4-1.5,1.1-1.9"/><path fill="#472b29" d="M53.9,68.2c-1.6,0-2.9-1.2-2.9-2.7c0-0.9,0.5-1.7,1.3-2.2c0.2-0.1,0.4-0.1,0.5,0.1c0.1,0.2,0.1,0.4-0.1,0.5 c-0.6,0.4-0.9,0.9-0.9,1.6c0,1.1,1,1.9,2.1,1.9s2.1-0.9,2.1-1.9c0-0.3-0.1-0.7-0.3-1c-0.1-0.2-0.1-0.4,0.1-0.5 c0.2-0.1,0.4-0.1,0.5,0.1c0.3,0.4,0.4,0.9,0.4,1.4C56.8,67,55.5,68.2,53.9,68.2z"/><path fill="#f1bc19" d="M55.2,65.2C54,66.1,53,65.9,53,65.9l-0.4-4.1h3.5C56.1,61.8,56.3,64.2,55.2,65.2z"/><path fill="#472b29" d="M53.2,66.3c-0.2,0-0.3,0-0.3,0c-0.2,0-0.3-0.2-0.3-0.3l-0.4-4.1c0-0.1,0-0.2,0.1-0.3s0.2-0.1,0.3-0.1h3.5 c0.2,0,0.3,0.1,0.4,0.3c0,0,0.2,2.7-1.1,3.7l0,0C54.5,66.2,53.7,66.3,53.2,66.3z M53.1,62.2l0.3,3.4c0.3,0,0.9-0.1,1.6-0.7l0,0 c0.8-0.6,0.8-2,0.8-2.7H53.1z M55.2,65.2L55.2,65.2L55.2,65.2z"/><path fill="#fdfcee" d="M54.5,64.5c-0.1,0-0.2,0-0.3-0.1C54,64.3,54,64.2,53.9,64c0-0.1,0-0.3,0.1-0.4c0.1-0.1,0.3-0.2,0.4-0.2 c0.1,0,0.2,0,0.3,0.1c0.1,0.1,0.2,0.2,0.2,0.3c0,0.1,0,0.3-0.1,0.4C54.8,64.4,54.6,64.5,54.5,64.5z"/><path fill="#472b29" d="M54.5,63.7c0.1,0,0.1,0,0.2,0c0.1,0.1,0.2,0.3,0.1,0.4c-0.1,0.1-0.1,0.1-0.2,0.1c-0.1,0-0.1,0-0.2-0.1 c-0.1-0.1-0.2-0.3-0.1-0.4C54.3,63.7,54.4,63.7,54.5,63.7 M54.5,63.2c-0.2,0-0.5,0.1-0.6,0.3c-0.1,0.2-0.2,0.4-0.1,0.6 c0,0.2,0.2,0.4,0.3,0.5c0.1,0.1,0.3,0.1,0.4,0.1c0.2,0,0.5-0.1,0.6-0.3c0.1-0.2,0.2-0.4,0.1-0.6c0-0.2-0.2-0.4-0.3-0.5 C54.8,63.2,54.6,63.2,54.5,63.2L54.5,63.2z"/><g><path fill="#472b29" d="M38.7,45.3c-0.1,0-0.2-0.1-0.3-0.2s0.1-0.3,0.2-0.3l22.5-0.2c0.1,0,0.3,0.1,0.3,0.2c0,0.1-0.1,0.3-0.2,0.3 L38.7,45.3C38.7,45.3,38.7,45.3,38.7,45.3z"/></g><g><path fill="#472b29" d="M34.8,45.3c-0.1,0-0.2-0.1-0.3-0.2s0.1-0.3,0.2-0.3l2.2,0c0,0,0,0,0,0c0.1,0,0.2,0.1,0.3,0.2 s-0.1,0.3-0.2,0.3L34.8,45.3C34.8,45.3,34.8,45.3,34.8,45.3z"/></g><g><path fill="#472b29" d="M33.7,48c-0.1,0-0.2-0.1-0.3-0.2c0-0.1,0.1-0.3,0.2-0.3l27-0.3c0,0,0,0,0,0c0.1,0,0.2,0.1,0.3,0.2 c0,0.1-0.1,0.3-0.2,0.3L33.7,48C33.7,48,33.7,48,33.7,48z"/></g><g><path fill="#472b29" d="M34.2,50.9c-0.1,0-0.2-0.1-0.3-0.2c0-0.1,0.1-0.3,0.2-0.3l25.9-0.6c0.1,0,0.3,0.1,0.3,0.2 c0,0.1-0.1,0.3-0.2,0.3L34.2,50.9C34.2,50.9,34.2,50.9,34.2,50.9z"/></g><g><path fill="#472b29" d="M54.4,53.4c-0.1,0-0.2-0.1-0.3-0.2c0-0.1,0.1-0.3,0.2-0.3l3.6-0.1c0.1,0,0.3,0.1,0.3,0.2s-0.1,0.3-0.2,0.3 L54.4,53.4C54.4,53.4,54.4,53.4,54.4,53.4z"/></g><g><path fill="#472b29" d="M34.8,53.8c-0.1,0-0.2-0.1-0.3-0.2c0-0.1,0.1-0.3,0.2-0.3l17.9-0.4c0.2,0,0.3,0.1,0.3,0.2s-0.1,0.3-0.2,0.3 L34.8,53.8C34.8,53.8,34.8,53.8,34.8,53.8z"/></g><g><path fill="#472b29" d="M34.2,62c-0.4,0-0.7-0.3-0.7-0.6c0,0,0-0.1,0-1.3c0-2.2,3.4-3.6,3.8-3.8c0.4-0.1,0.8,0,0.9,0.4 c0.1,0.4,0,0.8-0.4,0.9c-0.9,0.4-2.9,1.5-2.9,2.5c0,0.2,0,0.4,0,0.5l22.6-0.1c0,0,0,0,0,0c0.4,0,0.7,0.3,0.7,0.7 c0,0.4-0.3,0.7-0.7,0.7L34.2,62C34.2,62,34.2,62,34.2,62z"/></g><g><path fill="#472b29" d="M56.2,56.1C56.1,56.1,56.1,56.1,56.2,56.1c-0.2,0-0.3-0.2-0.2-0.3l3.2-14.3c0-0.1,0.2-0.2,0.3-0.2 c0.1,0,0.2,0.2,0.2,0.3l-3.2,14.3C56.4,56.1,56.3,56.1,56.2,56.1z"/></g><g><path fill="#472b29" d="M53.6,56.1C53.6,56.1,53.6,56.1,53.6,56.1c-0.2,0-0.3-0.2-0.2-0.3l3.2-14.3c0-0.1,0.2-0.2,0.3-0.2 c0.1,0,0.2,0.2,0.2,0.3l-3.2,14.3C53.8,56.1,53.7,56.1,53.6,56.1z"/></g><g><path fill="#472b29" d="M51.1,56.1C51,56.1,51,56.1,51.1,56.1c-0.2,0-0.3-0.2-0.2-0.3L54,41.5c0-0.1,0.2-0.2,0.3-0.2 c0.1,0,0.2,0.2,0.2,0.3l-3.2,14.3C51.3,56.1,51.2,56.1,51.1,56.1z"/></g><g><path fill="#472b29" d="M48.8,56.1C48.8,56.1,48.8,56.1,48.8,56.1c-0.2,0-0.3-0.2-0.2-0.3l3.2-14.3c0-0.1,0.2-0.2,0.3-0.2 c0.1,0,0.2,0.2,0.2,0.3l-3.2,14.3C49.1,56.1,49,56.1,48.8,56.1z"/></g><g><path fill="#472b29" d="M47.1,52.5C47.1,52.5,47.1,52.5,47.1,52.5c-0.2,0-0.3-0.2-0.2-0.3l2.4-10.7c0-0.1,0.2-0.2,0.3-0.2 c0.1,0,0.2,0.2,0.2,0.3l-2.4,10.7C47.3,52.4,47.2,52.5,47.1,52.5z"/></g><g><path fill="#472b29" d="M45.6,47.9C45.6,47.9,45.5,47.9,45.6,47.9c-0.2,0-0.3-0.2-0.2-0.3l1.3-6.1c0-0.1,0.2-0.2,0.3-0.2 c0.1,0,0.2,0.2,0.2,0.3l-1.3,6.1C45.8,47.8,45.7,47.9,45.6,47.9z"/></g></g><g><path fill="#d8ad8f" d="M72.1,46c0.1-1.1-0.2-2-0.2-2.5c0,0,0,0,0,0c-0.9-1.2-1.5-2.6-2.9-3.4c-1.4-0.9-3.2-1.6-4.8-2 c-4.1-1-8,1.9-9.3,5.8c0,0,0,0,0,0.1c0.2,0.9,0.3,1.7,0.3,2.1c-1.1,0-1.7,0.6-1.3,1.7c0,0,0.4,1.9,0.7,2.8 c0.2,0.6,0.5,0.8,1.1,0.9c0,0.6,0,1.2,0,1.8c0,0.7,0.2,1.4,0.6,2c1.1,1.5,6.6,5.1,7.9,5c2.2,0,6.4-3.7,7.5-5.5 c0.2-0.3,0.3-0.8,0.3-1.2c0-0.7,0-1.4,0-2.1c0.4-0.1,0.7-0.3,0.9-0.8c0.3-0.9,0.7-2.7,0.7-2.8C74,46.6,73.2,46,72.1,46z"/><g opacity=".3"><path fill="#f4989e" d="M58.7 50.800000000000004A1.4 1.4 0 1 0 58.7 53.6 1.4 1.4 0 1 0 58.7 50.800000000000004zM69.5 50.800000000000004A1.4 1.4 0 1 0 69.5 53.6 1.4 1.4 0 1 0 69.5 50.800000000000004z" opacity=".8"/></g><path fill="#472b29" d="M55.9 52c-.1 0-.2-.1-.2-.2l-.6-5.7c0-.1.1-.2.2-.2.1 0 .2.1.2.2l.6 5.7C56.1 51.9 56 52 55.9 52 55.9 52 55.9 52 55.9 52zM71.9 51.7C71.9 51.7 71.9 51.7 71.9 51.7c-.1 0-.2-.1-.2-.2l.3-5.7c0-.1.1-.2.2-.2.1 0 .2.1.2.2l-.3 5.7C72.1 51.6 72 51.7 71.9 51.7z"/><path fill="#6d1b18" d="M61.5,55.1c0,0.1,0,0.2,0,0.3c0,1,1.1,1.8,2.5,1.8s2.5-0.8,2.5-1.8c0-0.1,0-0.2,0-0.3H61.5z"/><path fill="#ee3e54" d="M65.3,57c-0.2-0.3-0.7-0.4-1.3-0.4s-1.1,0.2-1.3,0.4c0.4,0.2,0.8,0.3,1.3,0.3S64.9,57.1,65.3,57z"/><path fill="#fdfcef" d="M62.2,55.1C62.2,55.1,62.2,55.1,62.2,55.1l0,0.3c0,0.3,0.3,0.5,0.8,0.5h1.9c0.4,0,0.8-0.2,0.8-0.5v-0.3 c0,0,0,0,0,0H62.2z"/><path fill="#472b29" d="M64,57.5c-1.5,0-2.7-0.9-2.7-2c0-0.1,0-0.3,0.1-0.4c0-0.1,0.1-0.1,0.2-0.1h4.8c0.1,0,0.2,0.1,0.2,0.2 c0,0.1,0.1,0.3,0.1,0.4C66.6,56.6,65.4,57.5,64,57.5z M61.7,55.3c0,0,0,0.1,0,0.1c0,0.9,1,1.6,2.3,1.6s2.3-0.7,2.3-1.6 c0,0,0-0.1,0-0.1H61.7z"/><path fill="#472b29" d="M64 53.8c.5 0 1.1-.2 1.4-.6 0 0 0-.1 0-.1l0 0c0 0-.1 0-.1 0-.3.3-.7.5-1.3.5-.5 0-1-.2-1.3-.5 0 0 0 0-.1 0 0 0 0 0-.1 0 0 0 0 .1 0 .1C62.9 53.5 63.4 53.8 64 53.8zM64.6 58.6C64.6 58.6 64.6 58.5 64.6 58.6c.1-.1 0-.1 0-.1h-1.3c0 0-.1 0-.1.1s0 .1.1.1H64.6z" opacity=".41"/><path fill="#512c2b" d="M62.5 45.2c-1.4-.5-3.8-.7-5.3-.6-.1 0-.1.1-.1.1 0 .1.1.1.1.1 0 0 3.6.6 4.7 1 0 0 0 0 .1 0 .1 0 .1 0 .1-.1l.4-.5c0 0 0-.1 0-.1C62.6 45.3 62.5 45.2 62.5 45.2zM65.3 45.1c1.4-.4 3.9-.5 5.3-.3.1 0 .1.1.1.1 0 .1-.1.1-.1.1 0 0-3.6.4-4.8.8 0 0 0 0-.1 0-.1 0-.1 0-.1-.1l-.4-.5c0 0 0-.1 0-.1C65.3 45.1 65.3 45.1 65.3 45.1z"/><path fill="#472b29" d="M60 46.7c-.4 0-.7.2-.9.6 0 0 .1 0 .1 0 .3 0 .5.3.5.6s-.2.6-.5.6c-.1 0-.2 0-.3-.1.1.5.5.9 1 .9.6 0 1-.6 1-1.3C61 47.3 60.5 46.7 60 46.7zM67.8 46.7c-.3 0-.6.2-.8.4.1 0 .1 0 .2 0 .3 0 .5.3.5.6s-.2.6-.5.6c-.2 0-.3-.1-.4-.3 0 .7.5 1.3 1 1.3.6 0 1-.6 1-1.3C68.8 47.3 68.4 46.7 67.8 46.7z"/><path fill="#b2876b" d="M49.8,69h28.1c-0.1-2.9-0.4-4.1-2.6-4.8c-0.1,0-0.1-0.1-0.2-0.1c-0.1,0-0.2-0.1-0.4-0.2 c-0.9-0.4-6.6-2.3-6.6-2.3c-0.4-0.1-0.7-0.4-0.9-0.8c-0.3-0.6-0.2-2.1-0.2-2.1s-1.7,0.8-3,1c-1.3,0.1-3.7-1.6-3.7-1.6 s-0.1,2.2-0.2,2.6c-0.1,0.4-0.5,0.7-0.9,0.8l-5.5,1.8c-0.6,0.1-1.1,0.4-1.5,0.6c-1.4,0.9-2,2.3-2.3,3.3c0,0,0,0,0,0 c0,0.1,0,0.2-0.1,0.4c-0.1,0.5-0.1,0.9-0.1,1C49.8,68.9,49.8,68.9,49.8,69z"/><g><path fill="#a1a1ca" d="M73.1,69l-0.4-5.9l-3.3-1.2c-2.2,1.7-10,1.3-11.1,0.4l-3.6,1.2L54.5,69H73.1z"/></g><g><path fill="#472b29" d="M64.2,60c-1.4,0-3.6-1.2-3.7-1.3c-0.1-0.1-0.2-0.2-0.1-0.3c0.1-0.1,0.2-0.2,0.3-0.1c0,0,2.4,1.3,3.6,1.2 c1.2-0.1,3-1.1,3-1.1c0.1-0.1,0.3,0,0.3,0.1c0.1,0.1,0,0.3-0.1,0.3c-0.1,0-1.9,1.1-3.2,1.2C64.3,60,64.3,60,64.2,60z"/></g><g><path fill="#3a2221" d="M70.4,34.6c0-0.2,0-0.3-0.1-0.5c0-0.1,0.1-0.3,0.1-0.5c0-0.9-0.7-1.7-1.6-2c0-1.2-1.1-2.1-2.4-2.2 C66,28.6,65,28,63.9,28c-1,0-1.9,0.5-2.4,1.3c-0.2,0-0.4-0.1-0.6-0.1c-1.2,0-2.3,0.9-2.3,2c0,0,0,0.1,0,0.1 c-1.1,0.3-1.8,1.2-1.8,2.2c0,0.6,0.2,1.1,0.6,1.5c-0.3,0.3-0.4,0.7-0.4,1.2c0,1.1,1,2,2.2,2c0.3,0,0.6-0.1,0.9-0.2 c0,0.9,0.9,1.7,1.9,1.7c0.2,0,0.4,0,0.6-0.1c0.5,0.6,1.2,0.9,2.1,0.9c1.3,0,2.5-0.9,2.6-2.1c0.9-0.3,1.5-1.1,1.6-2 C69.8,36.3,70.4,35.5,70.4,34.6z"/></g><g><path fill="#472b29" d="M62.7 46.4c-1.6-1.9-7.6-.6-7.6-.6.1.4.2.9.3 1.3.4 0 .5 1.1.5 1.4.2 1.8 1.4 3.1 3.9 3 2.5-.1 3.1-1.9 3.2-3.1C63.1 47.2 62.7 46.4 62.7 46.4zM62.5 48.6c-.1 1.6-1.1 2.5-2.7 2.6-.2 0-.3 0-.5 0-2.5 0-2.9-2.2-3-3.6 0-.8.5-1.5 1.3-1.5.5 0 1 0 1.6 0 1.9 0 2.7.4 2.9.8C62.2 47 62.5 47.7 62.5 48.6zM64.5 48.5c.1 1.1.7 3 3.2 3.1 2.5.1 3.7-1.2 3.9-3 0-.4.1-1.4.5-1.4.1-.4.2-.9.3-1.3 0 0-6-1.4-7.6.6C64.8 46.4 64.4 47.2 64.5 48.5zM65.4 46.8c.2-.4 1-.8 2.9-.8.6 0 1.1 0 1.6 0 .8.1 1.4.8 1.3 1.5 0 1.4-.5 3.6-3 3.6-.1 0-.3 0-.5 0-1.6-.1-2.6-1-2.7-2.6C65 47.7 65.3 47 65.4 46.8z"/><g><path fill="#472b29" d="M64.8,47.9c0,0-0.4-0.3-1.1-0.3c-0.7,0-1,0.3-1,0.3c-0.1-0.3-0.2-0.6-0.3-0.9c0.9,0,1.9,0,2.8,0 C65.1,47.3,65,47.6,64.8,47.9z"/></g></g><g><path fill="#472b29" d="M77.9,69l-27.9,0c-0.1,0-0.2,0-0.3-0.1c-0.1-0.1-0.1-0.2-0.1-0.3c0.4-2.6,1.3-4.3,2.6-5 c0.6-0.3,1.1-0.5,1.6-0.7l5.5-1.8c0.3-0.1,0.6-0.3,0.6-0.5c0-0.2,0.1-1,0.2-2c-1.6-1-3.5-2.4-4.1-3.3c-0.5-0.7-0.7-1.4-0.7-2.2 c0-0.5,0-0.9,0-1.4c-0.5-0.1-0.8-0.5-1-1.1c-0.2-0.5-0.4-1.5-0.7-2.7c-0.3-0.9-0.1-1.4,0.1-1.6c0.2-0.2,0.5-0.5,1.1-0.6 c0-0.1,0-0.2,0-0.3c-0.2-0.4-0.3-1.2-0.3-1.3c0-4.6,4.1-8.3,9.2-8.3c5.1,0,9.2,3.7,9.2,8.3c0,0-0.1,0.9-0.3,1.3c0,0,0,0.1,0,0.1 c0,0,0,0.1,0,0.1c0.6,0.1,1.1,0.3,1.3,0.7c0.2,0.3,0.4,0.8,0.2,1.5l0,0.1c-0.3,1.2-0.5,2.1-0.7,2.6c-0.2,0.5-0.5,0.9-0.9,1v0.2 c0,0.5,0,1.1,0,1.6c0,0.4-0.2,1-0.4,1.4c-0.8,1.2-2.7,3-4.5,4.2c0,1.1,0.1,1.4,0.1,1.5c0.1,0.2,0.3,0.5,0.6,0.6 c0.3,0.1,5.8,1.9,6.6,2.3c0.2,0.1,0.3,0.1,0.4,0.2c0.1,0,0.1,0.1,0.2,0.1c2,0.6,2.5,2.8,2.7,4.9c0,0.1,0,0.2-0.1,0.3 C78.1,69,78,69,77.9,69z M50.4,68.2h27.1c-0.3-2.4-0.9-3.5-2.2-3.9c-0.1,0-0.2-0.1-0.3-0.1c-0.1-0.1-0.3-0.1-0.4-0.2 c-0.9-0.4-6.5-2.3-6.6-2.3c-0.5-0.1-0.9-0.5-1.1-1c-0.2-0.4-0.2-1-0.2-2.1c0-0.1,0.1-0.2,0.2-0.3c2-1.3,3.8-3.1,4.5-4.1 c0.1-0.2,0.3-0.7,0.3-1c0-0.5,0-1.1,0-1.6l0-0.5c0-0.2,0.1-0.3,0.3-0.4c0.3,0,0.5-0.1,0.6-0.6c0.2-0.5,0.4-1.4,0.7-2.6 c0-0.1,0-0.1,0-0.2c0.1-0.3,0.1-0.6-0.1-0.8c-0.2-0.3-0.6-0.4-1.1-0.4c-0.1,0-0.2,0-0.3-0.1s-0.1-0.2-0.1-0.3c0-0.1,0-0.3,0-0.5 c0-0.2,0-0.4,0.1-0.5c0.1-0.2,0.2-0.7,0.2-1c0-4.2-3.8-7.6-8.4-7.6s-8.4,3.4-8.4,7.6c0,0.3,0.2,0.8,0.3,1c0,0,0.1,0.1,0.1,0.2 c0,0.3,0.1,0.6,0.1,0.8c0,0.1,0,0.2-0.1,0.3c-0.1,0.1-0.2,0.1-0.3,0.1c-0.4,0-0.8,0.1-0.9,0.3c-0.2,0.2-0.1,0.6,0,0.9 c0,0,0,0.1,0,0.1c0.3,1.2,0.5,2.1,0.7,2.6c0.2,0.5,0.4,0.6,0.7,0.6c0.2,0,0.4,0.2,0.4,0.4c0,0.6,0,1.2,0,1.8 c0,0.6,0.2,1.2,0.5,1.7c0.5,0.7,2.2,2,4.1,3.2c0.1,0.1,0.2,0.2,0.2,0.3c-0.1,0.9-0.1,2-0.2,2.3c-0.1,0.6-0.7,1-1.2,1.1L54,63.6 c-0.5,0.1-1,0.4-1.5,0.6C51.5,64.8,50.8,66.1,50.4,68.2z"/></g><g><path fill="#512c2b" d="M63.8,34c-8.1,0-11,6.9-8.6,13.7c0.1,0.3,0.7,0.3,0.7-0.1c0.3-3.9,2.2-7.1,7.9-5.5c5.8-1.6,7.6,1.6,7.9,5.5 c0,0.3,0.6,0.4,0.7,0.1C74.8,40.9,71.9,34,63.8,34z"/></g></g></svg>