<svg xmlns="http://www.w3.org/2000/svg" viewBox="0 0 100 100" width="512px" height="512px"><path fill="#ee3e54" d="M13 27A2 2 0 1 0 13 31A2 2 0 1 0 13 27Z"/><path fill="#f1bc19" d="M77 12A1 1 0 1 0 77 14A1 1 0 1 0 77 12Z"/><path fill="#fce0a2" d="M50 13A37 37 0 1 0 50 87A37 37 0 1 0 50 13Z"/><path fill="#f1bc19" d="M83 11A4 4 0 1 0 83 19A4 4 0 1 0 83 11Z"/><path fill="#ee3e54" d="M87 22A2 2 0 1 0 87 26A2 2 0 1 0 87 22Z"/><path fill="#fbcd59" d="M81 74A2 2 0 1 0 81 78 2 2 0 1 0 81 74zM15 59A4 4 0 1 0 15 67 4 4 0 1 0 15 59z"/><path fill="#ee3e54" d="M25 85A2 2 0 1 0 25 89A2 2 0 1 0 25 85Z"/><path fill="#fff" d="M18.5 51A2.5 2.5 0 1 0 18.5 56A2.5 2.5 0 1 0 18.5 51Z"/><path fill="#f1bc19" d="M21 66A1 1 0 1 0 21 68A1 1 0 1 0 21 66Z"/><path fill="#fff" d="M80 33A1 1 0 1 0 80 35A1 1 0 1 0 80 33Z"/><path fill="#fdfcee" d="M68,71H32c-2.761,0-5-2.239-5-5V34c0-2.761,2.239-5,5-5h36c2.761,0,5,2.239,5,5v32 C73,68.761,70.761,71,68,71z"/><path fill="#efeddf" d="M27 35.5H73V65.5H27z"/><path fill="#472b29" d="M68,29.4c2.536,0,4.6,2.064,4.6,4.6v32c0,2.536-2.064,4.6-4.6,4.6H32c-2.536,0-4.6-2.064-4.6-4.6V34 c0-2.536,2.064-4.6,4.6-4.6H68 M68,28H32c-3.314,0-6,2.686-6,6v32c0,3.314,2.686,6,6,6h36c3.314,0,6-2.686,6-6V34 C74,30.686,71.314,28,68,28L68,28z"/><path fill="#472b29" d="M56.5 36H26.75c-.276 0-.5-.224-.5-.5s.224-.5.5-.5H56.5c.276 0 .5.224.5.5S56.776 36 56.5 36zM62.5 36h-4c-.276 0-.5-.224-.5-.5s.224-.5.5-.5h4c.276 0 .5.224.5.5S62.776 36 62.5 36zM73.125 36H65.5c-.276 0-.5-.224-.5-.5s.224-.5.5-.5h7.625c.276 0 .5.224.5.5S73.401 36 73.125 36zM73.125 66H68.5c-.276 0-.5-.224-.5-.5s.224-.5.5-.5h4.625c.276 0 .5.224.5.5S73.401 66 73.125 66zM65.5 66H26.625c-.276 0-.5-.224-.5-.5s.224-.5.5-.5H65.5c.276 0 .5.224.5.5S65.776 66 65.5 66z"/><path fill="#ee3e54" d="M32.499 31.307A1.193 1.193 0 1 0 32.499 33.693A1.193 1.193 0 1 0 32.499 31.307Z"/><path fill="#472b29" d="M32.501,31.75c0.413,0,0.749,0.336,0.749,0.75s-0.336,0.75-0.749,0.75 c-0.414,0-0.751-0.336-0.751-0.75S32.087,31.75,32.501,31.75 M32.501,31C31.673,31,31,31.673,31,32.5c0,0.827,0.673,1.5,1.501,1.5 C33.327,34,34,33.327,34,32.5C34,31.673,33.328,31,32.501,31L32.501,31z"/><path fill="#f1bc19" d="M36.5 31.307A1.193 1.193 0 1 0 36.5 33.693A1.193 1.193 0 1 0 36.5 31.307Z"/><path fill="#472b29" d="M36.5,31.75c0.414,0,0.75,0.336,0.75,0.75s-0.336,0.75-0.75,0.75s-0.75-0.336-0.75-0.75 S36.086,31.75,36.5,31.75 M36.5,31c-0.827,0-1.5,0.673-1.5,1.5c0,0.827,0.673,1.5,1.5,1.5c0.826,0,1.5-0.673,1.5-1.5 C38,31.673,37.327,31,36.5,31L36.5,31z"/><path fill="#88ae45" d="M40.501 31.307A1.193 1.193 0 1 0 40.501 33.693A1.193 1.193 0 1 0 40.501 31.307Z"/><path fill="#472b29" d="M40.501 31.75c.413 0 .749.336.749.75s-.336.75-.749.75c-.414 0-.751-.336-.751-.75S40.087 31.75 40.501 31.75M40.501 31C39.673 31 39 31.673 39 32.5c0 .827.673 1.5 1.501 1.5C41.328 34 42 33.327 42 32.5 42 31.673 41.328 31 40.501 31L40.501 31zM54.625 44h-14.25C40.168 44 40 43.832 40 43.625s.168-.375.375-.375h14.25c.207 0 .375.168.375.375S54.832 44 54.625 44zM36.625 44h-2.25C34.168 44 34 43.832 34 43.625s.168-.375.375-.375h2.25c.207 0 .375.168.375.375S36.832 44 36.625 44zM62.625 44h-1.25C61.168 44 61 43.832 61 43.625s.168-.375.375-.375h1.25c.207 0 .375.168.375.375S62.832 44 62.625 44zM59.625 44h-1.25C58.168 44 58 43.832 58 43.625s.168-.375.375-.375h1.25c.207 0 .375.168.375.375S59.832 44 59.625 44zM64.375 44C64.168 44 64 43.833 64 43.626c0-.207.167-.375.374-.376l1.196-.003c0 0 0 0 .001 0 .207 0 .375.167.375.374 0 .207-.167.375-.374.376L64.375 44C64.375 44 64.375 44 64.375 44zM54.625 54h-14.25C40.168 54 40 53.832 40 53.625s.168-.375.375-.375h14.25c.207 0 .375.168.375.375S54.832 54 54.625 54zM36.625 54h-2.25C34.168 54 34 53.832 34 53.625s.168-.375.375-.375h2.25c.207 0 .375.168.375.375S36.832 54 36.625 54zM62.625 54h-1.25C61.168 54 61 53.832 61 53.625s.168-.375.375-.375h1.25c.207 0 .375.168.375.375S62.832 54 62.625 54zM59.625 54h-1.25C58.168 54 58 53.832 58 53.625s.168-.375.375-.375h1.25c.207 0 .375.168.375.375S59.832 54 59.625 54zM64.375 54C64.168 54 64 53.833 64 53.626c0-.207.167-.375.374-.376l1.196-.003c0 0 0 0 .001 0 .207 0 .375.167.375.374 0 .207-.167.375-.374.376L64.375 54C64.375 54 64.375 54 64.375 54zM54.625 59h-14.25C40.168 59 40 58.832 40 58.625s.168-.375.375-.375h14.25c.207 0 .375.168.375.375S54.832 59 54.625 59zM36.625 59h-2.25C34.168 59 34 58.832 34 58.625s.168-.375.375-.375h2.25c.207 0 .375.168.375.375S36.832 59 36.625 59zM62.625 59h-1.25C61.168 59 61 58.832 61 58.625s.168-.375.375-.375h1.25c.207 0 .375.168.375.375S62.832 59 62.625 59zM59.625 59h-1.25C58.168 59 58 58.832 58 58.625s.168-.375.375-.375h1.25c.207 0 .375.168.375.375S59.832 59 59.625 59zM64.375 59C64.168 59 64 58.833 64 58.626c0-.207.167-.375.374-.376l1.196-.003c0 0 0 0 .001 0 .207 0 .375.167.375.374 0 .207-.167.375-.374.376L64.375 59C64.375 59 64.375 59 64.375 59zM54.625 49h-14.25C40.168 49 40 48.832 40 48.625s.168-.375.375-.375h14.25c.207 0 .375.168.375.375S54.832 49 54.625 49zM36.625 49h-2.25C34.168 49 34 48.832 34 48.625s.168-.375.375-.375h2.25c.207 0 .375.168.375.375S36.832 49 36.625 49zM62.625 49h-1.25C61.168 49 61 48.832 61 48.625s.168-.375.375-.375h1.25c.207 0 .375.168.375.375S62.832 49 62.625 49zM64.375 49C64.168 49 64 48.833 64 48.626c0-.207.167-.375.374-.376l1.196-.003c0 0 0 0 .001 0 .207 0 .375.167.375.374 0 .207-.167.375-.374.376L64.375 49C64.375 49 64.375 49 64.375 49z"/></svg>