
<svg xmlns="http://www.w3.org/2000/svg"  viewBox="0 0 100 100" width="512px" height="512px"><path fill="#c7ede6" d="M87.215,56.71C88.35,54.555,89,52.105,89,49.5c0-6.621-4.159-12.257-10.001-14.478 C78.999,35.015,79,35.008,79,35c0-11.598-9.402-21-21-21c-9.784,0-17.981,6.701-20.313,15.757C36.211,29.272,34.638,29,33,29 c-7.692,0-14.023,5.793-14.89,13.252C12.906,43.353,9,47.969,9,53.5C9,59.851,14.149,65,20.5,65c0.177,0,0.352-0.012,0.526-0.022 C21.022,65.153,21,65.324,21,65.5C21,76.822,30.178,86,41.5,86c6.437,0,12.175-2.972,15.934-7.614C59.612,80.611,62.64,82,66,82 c4.65,0,8.674-2.65,10.666-6.518C77.718,75.817,78.837,76,80,76c6.075,0,11-4.925,11-11C91,61.689,89.53,58.727,87.215,56.71z"/><path fill="#fdfcef" d="M67.125,41.5c0,0-3.64,0-6.125,0s-4.5-2.015-4.5-4.5c0-2.333,1.782-4.229,4.055-4.455 C60.533,32.364,60.5,32.187,60.5,32c0-2.485,2.015-4.5,4.5-4.5c1.438,0,2.703,0.686,3.527,1.736 C68.667,26.6,70.829,24.5,73.5,24.5c2.761,0,5,2.239,5,5c0,0.446-0.077,0.87-0.187,1.282c0.642-0.777,1.6-1.282,2.687-1.282 c1.781,0,3.234,1.335,3.455,3.055C84.636,32.533,84.813,32.5,85,32.5c2.485,0,4.5,2.015,4.5,4.5s-2.015,4.5-4.5,4.5s-9.5,0-9.5,0 h-5.375V42h-3V41.5z"/><path fill="#472b29" d="M73.5,24c3.033,0,5.5,2.467,5.5,5.5c0,0.016,0,0.031,0,0.047C79.602,29.192,80.29,29,81,29 c1.831,0,3.411,1.261,3.858,3.005C84.905,32.002,84.952,32,85,32c2.757,0,5,2.243,5,5s-2.243,5-5,5H70.125 c-0.276,0-0.5-0.224-0.5-0.5s0.224-0.5,0.5-0.5H85c2.206,0,4-1.794,4-4s-1.794-4-4-4c-0.117,0-0.23,0.017-0.343,0.032 l-0.141,0.019c-0.021,0.003-0.041,0.004-0.062,0.004c-0.246,0-0.462-0.185-0.495-0.437C83.768,31.125,82.496,30,81,30 c-0.885,0-1.723,0.401-2.301,1.1c-0.098,0.118-0.241,0.182-0.386,0.182c-0.078,0-0.156-0.018-0.228-0.056 c-0.209-0.107-0.314-0.346-0.254-0.573C77.946,30.218,78,29.852,78,29.5c0-2.481-2.019-4.5-4.5-4.5 c-2.381,0-4.347,1.872-4.474,4.263c-0.011,0.208-0.15,0.387-0.349,0.45c-0.05,0.016-0.101,0.024-0.152,0.024 c-0.15,0-0.296-0.069-0.392-0.192C67.362,28.563,66.221,28,65,28c-2.206,0-4,1.794-4,4c0,0.117,0.017,0.23,0.032,0.343 l0.019,0.141c0.016,0.134-0.022,0.268-0.106,0.373c-0.084,0.105-0.207,0.172-0.34,0.185C58.549,33.247,57,34.949,57,37 c0,2.206,1.794,4,4,4h6.125c0.276,0,0.5,0.224,0.5,0.5s-0.224,0.5-0.5,0.5H61c-2.757,0-5-2.243-5-5 c0-2.397,1.689-4.413,4.003-4.877C60.001,32.082,60,32.041,60,32c0-2.757,2.243-5,5-5c1.176,0,2.293,0.416,3.183,1.164 C68.781,25.76,70.945,24,73.5,24L73.5,24z"/><path fill="#472b29" d="M75 31c1.403 0 2.609.999 2.913 2.341C78.28 33.119 78.699 33 79.125 33c1.202 0 2.198.897 2.353 2.068C81.681 35.022 81.874 35 82.063 35c1.529 0 2.811 1.2 2.918 2.732C84.99 37.87 84.886 37.99 84.749 38c-.006 0-.012 0-.018 0-.13 0-.24-.101-.249-.232-.089-1.271-1.151-2.268-2.419-2.268-.229 0-.47.042-.738.127-.022.007-.045.01-.067.01-.055 0-.11-.02-.156-.054C81.038 35.537 81 35.455 81 35.375c0-1.034-.841-1.875-1.875-1.875-.447 0-.885.168-1.231.473-.047.041-.106.063-.165.063-.032 0-.063-.006-.093-.019-.088-.035-.148-.117-.155-.212C77.377 32.512 76.288 31.5 75 31.5c-.208 0-.425.034-.682.107-.023.007-.047.01-.07.01-.109 0-.207-.073-.239-.182-.038-.133.039-.271.172-.309C74.483 31.04 74.744 31 75 31L75 31zM61.117 32.5c1.326 0 2.508.897 2.874 2.182.038.133-.039.271-.172.309C63.795 34.997 63.772 35 63.75 35c-.109 0-.209-.072-.24-.182C63.205 33.748 62.221 33 61.117 33c-.117 0-.23.014-.342.029-.012.002-.023.003-.035.003-.121 0-.229-.092-.246-.217-.019-.137.077-.263.214-.281C60.842 32.516 60.978 32.5 61.117 32.5L61.117 32.5z"/><path fill="#fff" d="M88.405 64H78.5c-.276 0-.5-.224-.5-.5s.224-.5.5-.5h9.905c.276 0 .5.224.5.5S88.682 64 88.405 64zM91.5 64h-1c-.276 0-.5-.224-.5-.5s.224-.5.5-.5h1c.276 0 .5.224.5.5S91.777 64 91.5 64zM96.491 66H87.5c-.276 0-.5-.224-.5-.5s.224-.5.5-.5h8.991c.276 0 .5.224.5.5S96.767 66 96.491 66zM85.5 66h-1c-.276 0-.5-.224-.5-.5s.224-.5.5-.5h1c.276 0 .5.224.5.5S85.777 66 85.5 66zM82.5 66h-2c-.276 0-.5-.224-.5-.5s.224-.5.5-.5h2c.276 0 .5.224.5.5S82.777 66 82.5 66zM88.5 68h-2c-.276 0-.5-.224-.5-.5s.224-.5.5-.5h2c.276 0 .5.224.5.5S88.776 68 88.5 68zM91.5 59c-.177 0-.823 0-1 0-.276 0-.5.224-.5.5 0 .276.224.5.5.5.177 0 .823 0 1 0 .276 0 .5-.224.5-.5C92 59.224 91.776 59 91.5 59zM91.5 61c-.177 0-4.823 0-5 0-.276 0-.5.224-.5.5 0 .276.224.5.5.5.177 0 4.823 0 5 0 .276 0 .5-.224.5-.5C92 61.224 91.776 61 91.5 61zM96.5 63c-.177 0-2.823 0-3 0-.276 0-.5.224-.5.5 0 .276.224.5.5.5.177 0 2.823 0 3 0 .276 0 .5-.224.5-.5C97 63.224 96.776 63 96.5 63z"/><g><path fill="#fff" d="M48.5 23h-10c-.276 0-.5-.224-.5-.5s.224-.5.5-.5h10c.276 0 .5.224.5.5S48.776 23 48.5 23zM52.5 23h-2c-.276 0-.5-.224-.5-.5s.224-.5.5-.5h2c.276 0 .5.224.5.5S52.776 23 52.5 23zM57.5 25h-10c-.276 0-.5-.224-.5-.5s.224-.5.5-.5h10c.276 0 .5.224.5.5S57.777 25 57.5 25zM45.5 25h-1c-.276 0-.5-.224-.5-.5s.224-.5.5-.5h1c.276 0 .5.224.5.5S45.776 25 45.5 25zM42.375 25H40.5c-.276 0-.5-.224-.5-.5s.224-.5.5-.5h1.875c.276 0 .5.224.5.5S42.651 25 42.375 25zM51.5 21h-5c-.276 0-.5-.224-.5-.5s.224-.5.5-.5h5c.276 0 .5.224.5.5S51.777 21 51.5 21zM48.5 27h-2c-.276 0-.5-.224-.5-.5s.224-.5.5-.5h2c.276 0 .5.224.5.5S48.776 27 48.5 27z"/></g><g><path fill="#fefdef" d="M46.252,75.3c-3.062,0-5.552-2.491-5.552-5.553V43.253c0-3.062,2.491-5.553,5.552-5.553h23.495 c3.062,0,5.552,2.491,5.552,5.553v26.494c0,3.062-2.491,5.553-5.552,5.553H46.252z"/><path fill="#472b29" d="M69.747,38.4c2.676,0,4.853,2.177,4.853,4.853v26.495c0,2.676-2.177,4.853-4.853,4.853H46.253 c-2.676,0-4.853-2.177-4.853-4.853V43.252c0-2.676,2.177-4.853,4.853-4.853H69.747 M69.747,37H46.253 C42.799,37,40,39.799,40,43.252v26.495C40,73.201,42.799,76,46.253,76h23.495C73.201,76,76,73.201,76,69.748V43.252 C76,39.799,73.201,37,69.747,37L69.747,37z"/><path fill="#78cdd4" d="M68.312,67.5H47.687c-1.76,0-3.187-1.427-3.187-3.188V44.688c0-1.76,1.427-3.188,3.187-3.188 h20.625c1.76,0,3.188,1.427,3.188,3.188v19.625C71.5,66.073,70.073,67.5,68.312,67.5z"/><path fill="#b07454" d="M68.312,67.5c1.574,0,2.874-1.144,3.133-2.645L61,52l-7,7v8.5H68.312z"/><path fill="#472b29" d="M68.313,67.75H53.75v-8.854l7.269-7.27l10.692,13.159l-0.019,0.112 C71.407,66.551,69.985,67.75,68.313,67.75z M54.25,67.25h14.063c1.392,0,2.579-0.972,2.865-2.327l-10.197-12.55l-6.731,6.73V67.25 z"/><path fill="#fef6aa" d="M65.5 45A2.5 2.5 0 1 0 65.5 50A2.5 2.5 0 1 0 65.5 45Z"/><path fill="#472b29" d="M68 47.75c-.138 0-.25-.112-.25-.25 0-.463-.14-.908-.404-1.287-.079-.112-.051-.269.062-.348.112-.078.268-.053.348.063.323.463.494 1.007.494 1.572C68.25 47.638 68.138 47.75 68 47.75zM65.5 50.25c-1.517 0-2.75-1.233-2.75-2.75s1.233-2.75 2.75-2.75c.426 0 .835.095 1.216.282.124.062.175.211.114.335-.061.125-.211.178-.334.114-.312-.153-.646-.231-.995-.231-1.241 0-2.25 1.01-2.25 2.25s1.009 2.25 2.25 2.25c.748 0 1.446-.371 1.866-.992.078-.114.233-.145.347-.067.114.077.145.232.067.347C67.267 49.797 66.415 50.25 65.5 50.25z"/><path fill="#d38b5d" d="M57.866,60.451L51,52l-6.5,6.5v5.813c0,1.76,1.427,3.188,3.187,3.188h15.906l-2.102-2.587"/><path fill="#472b29" d="M64.119,67.75H47.688c-1.896,0-3.438-1.542-3.438-3.438v-5.916l6.769-6.77l7.041,8.666 c0.087,0.106,0.071,0.265-0.036,0.352c-0.108,0.085-0.265,0.07-0.352-0.037l-6.691-8.234l-6.231,6.23v5.709 c0,1.62,1.318,2.938,2.938,2.938h15.381l-1.771-2.18c-0.087-0.106-0.071-0.265,0.036-0.352c0.107-0.086,0.264-0.072,0.352,0.037 L64.119,67.75z"/><g><path fill="#d38b5d" d="M60.501 63.693L58.633 61.394"/><path fill="#472b29" d="M60.5,63.943c-0.073,0-0.145-0.031-0.194-0.093l-1.868-2.299c-0.087-0.106-0.071-0.265,0.036-0.352 s0.264-0.072,0.352,0.037l1.868,2.299c0.087,0.106,0.071,0.265-0.036,0.352C60.612,63.925,60.556,63.943,60.5,63.943z"/></g><g><path fill="#472b29" d="M68.313,68H47.688C45.654,68,44,66.346,44,64.313V50.167c0-0.276,0.224-0.5,0.5-0.5 s0.5,0.224,0.5,0.5v14.146C45,65.794,46.206,67,47.688,67h20.625C69.794,67,71,65.794,71,64.313V50.188c0-0.276,0.224-0.5,0.5-0.5 s0.5,0.224,0.5,0.5v14.125C72,66.346,70.346,68,68.313,68z"/></g><g><path fill="#472b29" d="M44.5,48.125c-0.276,0-0.5-0.224-0.5-0.5v-2.938C44,42.654,45.654,41,47.688,41h20.625 C70.346,41,72,42.654,72,44.688V47.5c0,0.276-0.224,0.5-0.5,0.5S71,47.776,71,47.5v-2.813C71,43.206,69.794,42,68.313,42H47.688 C46.206,42,45,43.206,45,44.688v2.938C45,47.901,44.776,48.125,44.5,48.125z"/></g></g><g><path fill="#fefdef" d="M40.252,72.3c-3.062,0-5.552-2.491-5.552-5.553V40.253c0-3.062,2.491-5.553,5.552-5.553h23.495 c3.062,0,5.552,2.491,5.552,5.553v26.494c0,3.062-2.491,5.553-5.552,5.553H40.252z"/><path fill="#472b29" d="M63.747,35.4c2.676,0,4.853,2.177,4.853,4.853v26.495c0,2.676-2.177,4.853-4.853,4.853H40.253 c-2.676,0-4.853-2.177-4.853-4.853V40.252c0-2.676,2.177-4.853,4.853-4.853H63.747 M63.747,34H40.253 C36.799,34,34,36.799,34,40.252v26.495C34,70.201,36.799,73,40.253,73h23.495C67.201,73,70,70.201,70,66.748V40.252 C70,36.799,67.201,34,63.747,34L63.747,34z"/><path fill="#78cdd4" d="M62.312,64.5H41.687c-1.76,0-3.187-1.427-3.187-3.188V41.688c0-1.76,1.427-3.188,3.187-3.188 h20.625c1.76,0,3.188,1.427,3.188,3.188v19.625C65.5,63.073,64.073,64.5,62.312,64.5z"/><path fill="#472b29" d="M65.5,56.375c-0.276,0-0.5-0.224-0.5-0.5V52.5c0-0.276,0.224-0.5,0.5-0.5s0.5,0.224,0.5,0.5v3.375 C66,56.151,65.776,56.375,65.5,56.375z"/><path fill="#b07454" d="M62.312,64.5c1.574,0,2.874-1.144,3.133-2.645L55,49l-7,7v8.5H62.312z"/><path fill="#472b29" d="M62.313,64.75H47.75v-8.854l7.269-7.27l10.692,13.159l-0.019,0.112 C65.407,63.551,63.985,64.75,62.313,64.75z M48.25,64.25h14.063c1.392,0,2.579-0.972,2.865-2.327l-10.197-12.55l-6.731,6.73V64.25 z"/><path fill="#fef6aa" d="M59.5 42A2.5 2.5 0 1 0 59.5 47A2.5 2.5 0 1 0 59.5 42Z"/><path fill="#472b29" d="M62 44.75c-.138 0-.25-.112-.25-.25 0-.463-.14-.908-.404-1.287-.079-.112-.051-.269.062-.348.112-.077.268-.053.348.063.323.463.494 1.007.494 1.572C62.25 44.638 62.138 44.75 62 44.75zM59.5 47.25c-1.517 0-2.75-1.233-2.75-2.75s1.233-2.75 2.75-2.75c.426 0 .835.095 1.216.282.124.062.175.211.114.335-.061.125-.211.178-.334.114-.312-.153-.646-.231-.995-.231-1.241 0-2.25 1.01-2.25 2.25s1.009 2.25 2.25 2.25c.748 0 1.446-.371 1.866-.992.078-.115.234-.144.347-.067.114.077.145.232.067.347C61.267 46.797 60.415 47.25 59.5 47.25z"/><path fill="#d38b5d" d="M51.866,57.451L45,49l-6.5,6.5v5.813c0,1.76,1.427,3.188,3.187,3.188h15.906l-2.102-2.587"/><path fill="#472b29" d="M58.119,64.75H41.688c-1.896,0-3.438-1.542-3.438-3.438v-5.916l6.769-6.77l7.041,8.666 c0.087,0.106,0.071,0.265-0.036,0.352c-0.107,0.085-0.265,0.07-0.352-0.037l-6.691-8.234l-6.231,6.23v5.709 c0,1.62,1.318,2.938,2.938,2.938h15.381l-1.771-2.18c-0.087-0.106-0.071-0.265,0.036-0.352c0.106-0.086,0.264-0.072,0.352,0.037 L58.119,64.75z"/><g><path fill="#d38b5d" d="M54.501 60.693L52.633 58.394"/><path fill="#472b29" d="M54.5,60.943c-0.073,0-0.145-0.031-0.194-0.093l-1.868-2.299c-0.087-0.106-0.071-0.265,0.036-0.352 c0.106-0.087,0.264-0.072,0.352,0.037l1.868,2.299c0.087,0.106,0.071,0.265-0.036,0.352C54.612,60.925,54.556,60.943,54.5,60.943z"/></g><g><path fill="#472b29" d="M62.313,65H41.688C39.654,65,38,63.346,38,61.313V47.167c0-0.276,0.224-0.5,0.5-0.5 s0.5,0.224,0.5,0.5v14.146C39,62.794,40.206,64,41.688,64h20.625C63.794,64,65,62.794,65,61.313v-3.125c0-0.276,0.224-0.5,0.5-0.5 s0.5,0.224,0.5,0.5v3.125C66,63.346,64.346,65,62.313,65z"/></g><g><path fill="#472b29" d="M65.5,51c-0.276,0-0.5-0.224-0.5-0.5v-8.813C65,40.206,63.794,39,62.313,39H41.688 C40.206,39,39,40.206,39,41.688v2.938c0,0.276-0.224,0.5-0.5,0.5s-0.5-0.224-0.5-0.5v-2.938C38,39.654,39.654,38,41.688,38h20.625 C64.346,38,66,39.654,66,41.688V50.5C66,50.776,65.776,51,65.5,51z"/></g></g><g><path fill="#fefdef" d="M34.252,69.3c-3.062,0-5.552-2.491-5.552-5.553V37.253c0-3.062,2.491-5.553,5.552-5.553h23.495 c3.062,0,5.552,2.491,5.552,5.553v26.494c0,3.062-2.491,5.553-5.552,5.553H34.252z"/><path fill="#472b29" d="M57.747,32.4c2.676,0,4.853,2.177,4.853,4.853v26.495c0,2.676-2.177,4.853-4.853,4.853H34.253 c-2.676,0-4.853-2.177-4.853-4.853V37.252c0-2.676,2.177-4.853,4.853-4.853H57.747 M57.747,31H34.253 C30.799,31,28,33.799,28,37.252v26.495C28,67.201,30.799,70,34.253,70h23.495C61.201,70,64,67.201,64,63.748V37.252 C64,33.799,61.201,31,57.747,31L57.747,31z"/><path fill="#78cdd4" d="M56.312,61.5H35.687c-1.76,0-3.187-1.427-3.187-3.188V38.688c0-1.76,1.427-3.188,3.187-3.188 h20.625c1.76,0,3.188,1.427,3.188,3.188v19.625C59.5,60.073,58.073,61.5,56.312,61.5z"/><path fill="#472b29" d="M59.5 53.375c-.276 0-.5-.224-.5-.5V49c0-.276.224-.5.5-.5S60 48.724 60 49v3.875C60 53.151 59.776 53.375 59.5 53.375zM59.5 46.5c-.276 0-.5-.224-.5-.5v-2c0-.276.224-.5.5-.5S60 43.724 60 44v2C60 46.276 59.776 46.5 59.5 46.5z"/><path fill="#b07454" d="M56.312,61.5c1.574,0,2.874-1.144,3.133-2.645L49,46l-7,7v8.5H56.312z"/><path fill="#472b29" d="M56.313,61.75H41.75v-8.854l7.269-7.27l10.692,13.159l-0.019,0.112 C59.407,60.551,57.985,61.75,56.313,61.75z M42.25,61.25h14.063c1.392,0,2.579-0.972,2.865-2.327l-10.197-12.55l-6.731,6.73V61.25 z"/><path fill="#fef6aa" d="M53.5 39A2.5 2.5 0 1 0 53.5 44A2.5 2.5 0 1 0 53.5 39Z"/><path fill="#472b29" d="M56 41.75c-.138 0-.25-.112-.25-.25 0-.463-.14-.908-.404-1.287-.079-.112-.051-.269.062-.348.113-.079.269-.053.348.063.323.463.494 1.007.494 1.572C56.25 41.638 56.138 41.75 56 41.75zM53.5 44.25c-1.517 0-2.75-1.233-2.75-2.75s1.233-2.75 2.75-2.75c.426 0 .835.095 1.216.282.124.062.175.211.114.335-.061.125-.21.178-.334.114-.312-.153-.646-.231-.995-.231-1.241 0-2.25 1.01-2.25 2.25s1.009 2.25 2.25 2.25c.748 0 1.446-.371 1.866-.992.078-.115.233-.145.347-.067.114.077.145.232.067.347C55.267 43.797 54.415 44.25 53.5 44.25z"/><path fill="#d38b5d" d="M45.866,54.451L39,46l-6.5,6.5v5.813c0,1.76,1.427,3.188,3.187,3.188h15.906l-2.102-2.587"/><path fill="#472b29" d="M52.119,61.75H35.688c-1.896,0-3.438-1.542-3.438-3.438v-5.916l6.769-6.77l7.041,8.666 c0.087,0.106,0.071,0.265-0.036,0.352c-0.108,0.085-0.265,0.07-0.352-0.037l-6.691-8.234l-6.231,6.23v5.709 c0,1.62,1.318,2.938,2.938,2.938h15.381l-1.771-2.18c-0.087-0.106-0.071-0.265,0.036-0.352c0.106-0.087,0.265-0.072,0.352,0.037 L52.119,61.75z"/><g><path fill="#d38b5d" d="M48.501 57.693L46.633 55.394"/><path fill="#472b29" d="M48.5,57.943c-0.073,0-0.145-0.031-0.194-0.093l-1.868-2.299c-0.087-0.106-0.071-0.265,0.036-0.352 c0.106-0.087,0.264-0.072,0.352,0.037l1.868,2.299c0.087,0.106,0.071,0.265-0.036,0.352C48.612,57.925,48.556,57.943,48.5,57.943z"/></g><g><path fill="#472b29" d="M56.313,62H35.688C33.654,62,32,60.346,32,58.313V44.167c0-0.276,0.224-0.5,0.5-0.5 s0.5,0.224,0.5,0.5v14.146C33,59.794,34.206,61,35.688,61h20.625C57.794,61,59,59.794,59,58.313v-3.125c0-0.276,0.224-0.5,0.5-0.5 s0.5,0.224,0.5,0.5v3.125C60,60.346,58.346,62,56.313,62z"/></g><g><path fill="#472b29" d="M32.5,42.125c-0.276,0-0.5-0.224-0.5-0.5v-2.938C32,36.654,33.654,35,35.688,35h20.625 C58.346,35,60,36.654,60,38.688V41.5c0,0.276-0.224,0.5-0.5,0.5S59,41.776,59,41.5v-2.813C59,37.206,57.794,36,56.313,36H35.688 C34.206,36,33,37.206,33,38.688v2.938C33,41.901,32.776,42.125,32.5,42.125z"/></g></g><g><path fill="#fdfcef" d="M31.5,64.5c0,0,1.567,0,3.5,0s3.5-1.567,3.5-3.5c0-1.781-1.335-3.234-3.055-3.455 C35.473,57.366,35.5,57.187,35.5,57c0-1.933-1.567-3.5-3.5-3.5c-1.032,0-1.95,0.455-2.59,1.165 c-0.384-1.808-1.987-3.165-3.91-3.165c-2.209,0-4,1.791-4,4c0,0.191,0.03,0.374,0.056,0.558C21.128,55.714,20.592,55.5,20,55.5 c-1.228,0-2.245,0.887-2.455,2.055C17.366,57.527,17.187,57.5,17,57.5c-1.933,0-3.5,1.567-3.5,3.5s1.567,3.5,3.5,3.5s7.5,0,7.5,0 V65h7V64.5z"/><path fill="#472b29" d="M33.25 60C33.112 60 33 59.888 33 59.75c0-1.223.995-2.218 2.218-2.218.034.009.737-.001 1.244.136.133.036.212.173.176.306-.036.134-.173.213-.306.176-.444-.12-1.1-.12-1.113-.118-.948 0-1.719.771-1.719 1.718C33.5 59.888 33.388 60 33.25 60zM26.5 64A.5.5 0 1 0 26.5 65 .5.5 0 1 0 26.5 64z"/><path fill="#472b29" d="M35,65h-3.5c-0.276,0-0.5-0.224-0.5-0.5s0.224-0.5,0.5-0.5H35c1.654,0,3-1.346,3-3 c0-1.496-1.125-2.768-2.618-2.959c-0.134-0.018-0.255-0.088-0.336-0.196s-0.115-0.244-0.094-0.377C34.975,57.314,35,57.16,35,57 c0-1.654-1.346-3-3-3c-0.85,0-1.638,0.355-2.219,1c-0.125,0.139-0.321,0.198-0.5,0.148c-0.182-0.049-0.321-0.195-0.36-0.379 C28.58,53.165,27.141,52,25.5,52c-1.93,0-3.5,1.57-3.5,3.5c0,0.143,0.021,0.28,0.041,0.418c0.029,0.203-0.063,0.438-0.242,0.54 c-0.179,0.102-0.396,0.118-0.556-0.01C20.878,56.155,20.449,56,20,56c-0.966,0-1.792,0.691-1.963,1.644 c-0.048,0.267-0.296,0.446-0.569,0.405C17.314,58.025,17.16,58,17,58c-1.654,0-3,1.346-3,3s1.346,3,3,3h7.5 c0.276,0,0.5,0.224,0.5,0.5S24.776,65,24.5,65H17c-2.206,0-4-1.794-4-4s1.794-4,4-4c0.059,0,0.116,0.002,0.174,0.006 C17.588,55.82,18.711,55,20,55c0.349,0,0.689,0.061,1.011,0.18C21.176,52.847,23.126,51,25.5,51c1.831,0,3.466,1.127,4.153,2.774 C30.333,53.276,31.155,53,32,53c2.206,0,4,1.794,4,4c0,0.048-0.001,0.095-0.004,0.142C37.739,57.59,39,59.169,39,61 C39,63.206,37.206,65,35,65z"/><path fill="#472b29" d="M29.5,64c-0.159,0-0.841,0-1,0c-0.276,0-0.5,0.224-0.5,0.5c0,0.276,0.224,0.5,0.5,0.5 c0.159,0,0.841,0,1,0c0.276,0,0.5-0.224,0.5-0.5C30,64.224,29.776,64,29.5,64z"/></g></svg>