
<svg xmlns="http://www.w3.org/2000/svg"  viewBox="0 0 100 100" width="512px" height="512px"><path fill="#ee3e54" d="M13 27A2 2 0 1 0 13 31A2 2 0 1 0 13 27Z"/><path fill="#f1bc19" d="M77 12A1 1 0 1 0 77 14A1 1 0 1 0 77 12Z"/><path fill="#fce0a2" d="M50 13A37 37 0 1 0 50 87A37 37 0 1 0 50 13Z"/><path fill="#f1bc19" d="M83 11A4 4 0 1 0 83 19A4 4 0 1 0 83 11Z"/><path fill="#ee3e54" d="M87 22A2 2 0 1 0 87 26A2 2 0 1 0 87 22Z"/><path fill="#fbcd59" d="M81 74A2 2 0 1 0 81 78 2 2 0 1 0 81 74zM15 59A4 4 0 1 0 15 67 4 4 0 1 0 15 59z"/><path fill="#ee3e54" d="M25 85A2 2 0 1 0 25 89A2 2 0 1 0 25 85Z"/><path fill="#fff" d="M18.5 51A2.5 2.5 0 1 0 18.5 56A2.5 2.5 0 1 0 18.5 51Z"/><path fill="#f1bc19" d="M21 66A1 1 0 1 0 21 68A1 1 0 1 0 21 66Z"/><path fill="#fff" d="M80 33A1 1 0 1 0 80 35A1 1 0 1 0 80 33Z"/><g><path fill="#fefdef" d="M46.252,70.3c-3.062,0-5.552-2.491-5.552-5.553V38.253c0-3.062,2.491-5.553,5.552-5.553h23.495 c3.062,0,5.552,2.491,5.552,5.553v26.494c0,3.062-2.491,5.553-5.552,5.553H46.252z"/><path fill="#472b29" d="M69.747,33.4c2.676,0,4.853,2.177,4.853,4.853v26.495c0,2.676-2.177,4.853-4.853,4.853H46.253 c-2.676,0-4.853-2.177-4.853-4.853V38.252c0-2.676,2.177-4.853,4.853-4.853H69.747 M69.747,32H46.253 C42.799,32,40,34.799,40,38.252v26.495C40,68.201,42.799,71,46.253,71h23.495C73.201,71,76,68.201,76,64.748V38.252 C76,34.799,73.201,32,69.747,32L69.747,32z"/><path fill="#78cdd4" d="M68.312,62.5H47.687c-1.76,0-3.187-1.427-3.187-3.188V39.688c0-1.76,1.427-3.188,3.187-3.188 h20.625c1.76,0,3.188,1.427,3.188,3.188v19.625C71.5,61.073,70.073,62.5,68.312,62.5z"/><path fill="#b07454" d="M68.312,62.5c1.574,0,2.874-1.144,3.133-2.645L61,47l-7,7v8.5H68.312z"/><path fill="#472b29" d="M68.313,62.75H53.75v-8.854l7.269-7.27l10.692,13.159l-0.019,0.112 C71.407,61.551,69.985,62.75,68.313,62.75z M54.25,62.25h14.063c1.392,0,2.579-0.972,2.865-2.327l-10.197-12.55l-6.731,6.73V62.25 z"/><path fill="#fef6aa" d="M65.5 40A2.5 2.5 0 1 0 65.5 45A2.5 2.5 0 1 0 65.5 40Z"/><path fill="#472b29" d="M68 42.75c-.138 0-.25-.112-.25-.25 0-.463-.14-.908-.404-1.287-.079-.112-.051-.269.062-.348.112-.077.268-.052.348.063.323.463.494 1.007.494 1.572C68.25 42.638 68.138 42.75 68 42.75zM65.5 45.25c-1.517 0-2.75-1.233-2.75-2.75s1.233-2.75 2.75-2.75c.426 0 .835.095 1.216.282.124.062.175.211.114.335-.061.126-.211.176-.334.114-.312-.153-.646-.231-.995-.231-1.241 0-2.25 1.01-2.25 2.25s1.009 2.25 2.25 2.25c.748 0 1.446-.371 1.866-.992.078-.115.233-.143.347-.067.114.077.145.232.067.347C67.267 44.797 66.415 45.25 65.5 45.25z"/><path fill="#d38b5d" d="M57.866,55.451L51,47l-6.5,6.5v5.813c0,1.76,1.427,3.188,3.187,3.188h15.906l-2.102-2.587"/><path fill="#472b29" d="M64.119,62.75H47.688c-1.896,0-3.438-1.542-3.438-3.438v-5.916l6.769-6.77l7.041,8.666 c0.087,0.106,0.071,0.265-0.036,0.352c-0.108,0.084-0.265,0.071-0.352-0.037l-6.691-8.234l-6.231,6.23v5.709 c0,1.62,1.318,2.938,2.938,2.938h15.381l-1.771-2.18c-0.087-0.106-0.071-0.265,0.036-0.352s0.264-0.072,0.352,0.037L64.119,62.75z"/><g><path fill="#d38b5d" d="M60.501 58.693L58.633 56.394"/><path fill="#472b29" d="M60.5,58.943c-0.073,0-0.145-0.031-0.194-0.093l-1.868-2.299c-0.087-0.106-0.071-0.265,0.036-0.352 c0.107-0.086,0.264-0.072,0.352,0.037l1.868,2.299c0.087,0.106,0.071,0.265-0.036,0.352C60.612,58.925,60.556,58.943,60.5,58.943z"/></g><g><path fill="#472b29" d="M68.313,63H47.688C45.654,63,44,61.346,44,59.313V45.167c0-0.276,0.224-0.5,0.5-0.5 s0.5,0.224,0.5,0.5v14.146C45,60.794,46.206,62,47.688,62h20.625C69.794,62,71,60.794,71,59.313V45.188c0-0.276,0.224-0.5,0.5-0.5 s0.5,0.224,0.5,0.5v14.125C72,61.346,70.346,63,68.313,63z"/></g><g><path fill="#472b29" d="M44.5,43.125c-0.276,0-0.5-0.224-0.5-0.5v-2.938C44,37.654,45.654,36,47.688,36h20.625 C70.346,36,72,37.654,72,39.688V42.5c0,0.276-0.224,0.5-0.5,0.5S71,42.776,71,42.5v-2.813C71,38.206,69.794,37,68.313,37H47.688 C46.206,37,45,38.206,45,39.688v2.938C45,42.901,44.776,43.125,44.5,43.125z"/></g></g><g><path fill="#fefdef" d="M39.252,67.3c-3.062,0-5.552-2.491-5.552-5.553V35.253c0-3.062,2.491-5.553,5.552-5.553h23.495 c3.062,0,5.552,2.491,5.552,5.553v26.494c0,3.062-2.491,5.553-5.552,5.553H39.252z"/><path fill="#472b29" d="M62.747,30.4c2.676,0,4.853,2.177,4.853,4.853v26.495c0,2.676-2.177,4.853-4.853,4.853H39.253 c-2.676,0-4.853-2.177-4.853-4.853V35.252c0-2.676,2.177-4.853,4.853-4.853H62.747 M62.747,29H39.253 C35.799,29,33,31.799,33,35.252v26.495C33,65.201,35.799,68,39.253,68h23.495C66.201,68,69,65.201,69,61.748V35.252 C69,31.799,66.201,29,62.747,29L62.747,29z"/><path fill="#78cdd4" d="M61.312,59.5H40.687c-1.76,0-3.187-1.427-3.187-3.188V36.688c0-1.76,1.427-3.188,3.187-3.188 h20.625c1.76,0,3.188,1.427,3.188,3.188v19.625C64.5,58.073,63.073,59.5,61.312,59.5z"/><path fill="#472b29" d="M64.5,51.375c-0.276,0-0.5-0.224-0.5-0.5V47.5c0-0.276,0.224-0.5,0.5-0.5s0.5,0.224,0.5,0.5v3.375 C65,51.151,64.776,51.375,64.5,51.375z"/><path fill="#b07454" d="M61.312,59.5c1.574,0,2.874-1.144,3.133-2.645L54,44l-7,7v8.5H61.312z"/><path fill="#472b29" d="M61.313,59.75H46.75v-8.854l7.269-7.27l10.692,13.159l-0.019,0.112 C64.407,58.551,62.985,59.75,61.313,59.75z M47.25,59.25h14.063c1.392,0,2.579-0.972,2.865-2.327l-10.197-12.55l-6.731,6.73V59.25 z"/><path fill="#fef6aa" d="M58.5 37A2.5 2.5 0 1 0 58.5 42A2.5 2.5 0 1 0 58.5 37Z"/><path fill="#472b29" d="M61 39.75c-.138 0-.25-.112-.25-.25 0-.463-.14-.908-.404-1.287-.079-.112-.051-.269.062-.348.112-.078.268-.053.348.063.323.463.494 1.007.494 1.572C61.25 39.638 61.138 39.75 61 39.75zM58.5 42.25c-1.517 0-2.75-1.233-2.75-2.75s1.233-2.75 2.75-2.75c.426 0 .835.095 1.216.282.124.062.175.211.114.335-.06.124-.21.176-.334.114-.312-.153-.646-.231-.995-.231-1.241 0-2.25 1.01-2.25 2.25s1.009 2.25 2.25 2.25c.748 0 1.446-.371 1.866-.992.079-.115.234-.145.347-.067.114.077.145.232.067.347C60.267 41.797 59.415 42.25 58.5 42.25z"/><path fill="#d38b5d" d="M50.866,52.451L44,44l-6.5,6.5v5.813c0,1.76,1.427,3.188,3.187,3.188h15.906l-2.102-2.587"/><path fill="#472b29" d="M57.119,59.75H40.688c-1.896,0-3.438-1.542-3.438-3.438v-5.916l6.769-6.77l7.041,8.666 c0.087,0.106,0.071,0.265-0.036,0.352c-0.108,0.085-0.265,0.07-0.352-0.037l-6.691-8.234l-6.231,6.23v5.709 c0,1.62,1.318,2.938,2.938,2.938h15.381l-1.771-2.18c-0.087-0.106-0.071-0.265,0.036-0.352s0.264-0.072,0.352,0.037L57.119,59.75z"/><g><path fill="#d38b5d" d="M53.501 55.693L51.633 53.394"/><path fill="#472b29" d="M53.5,55.943c-0.073,0-0.145-0.031-0.194-0.093l-1.868-2.299c-0.087-0.106-0.071-0.265,0.036-0.352 s0.264-0.072,0.352,0.037l1.868,2.299c0.087,0.106,0.071,0.265-0.036,0.352C53.612,55.925,53.556,55.943,53.5,55.943z"/></g><g><path fill="#472b29" d="M61.313,60H40.688C38.654,60,37,58.346,37,56.313V42.167c0-0.276,0.224-0.5,0.5-0.5 s0.5,0.224,0.5,0.5v14.146C38,57.794,39.206,59,40.688,59h20.625C62.794,59,64,57.794,64,56.313v-3.125c0-0.276,0.224-0.5,0.5-0.5 s0.5,0.224,0.5,0.5v3.125C65,58.346,63.346,60,61.313,60z"/></g><g><path fill="#472b29" d="M64.5,46c-0.276,0-0.5-0.224-0.5-0.5v-8.813C64,35.206,62.794,34,61.313,34H40.688 C39.206,34,38,35.206,38,36.688v2.938c0,0.276-0.224,0.5-0.5,0.5s-0.5-0.224-0.5-0.5v-2.938C37,34.654,38.654,33,40.688,33h20.625 C63.346,33,65,34.654,65,36.688V45.5C65,45.776,64.776,46,64.5,46z"/></g></g><g><path fill="#fefdef" d="M32.252,64.3c-3.062,0-5.552-2.491-5.552-5.553V32.253c0-3.062,2.491-5.553,5.552-5.553h23.495 c3.062,0,5.552,2.491,5.552,5.553v26.494c0,3.062-2.491,5.553-5.552,5.553H32.252z"/><path fill="#472b29" d="M55.747,27.4c2.676,0,4.853,2.177,4.853,4.853v26.495c0,2.676-2.177,4.853-4.853,4.853H32.253 c-2.676,0-4.853-2.177-4.853-4.853V32.252c0-2.676,2.177-4.853,4.853-4.853H55.747 M55.747,26H32.253 C28.799,26,26,28.799,26,32.252v26.495C26,62.201,28.799,65,32.253,65h23.495C59.201,65,62,62.201,62,58.748V32.252 C62,28.799,59.201,26,55.747,26L55.747,26z"/><path fill="#78cdd4" d="M54.312,56.5H33.687c-1.76,0-3.187-1.427-3.187-3.188V33.688c0-1.76,1.427-3.188,3.187-3.188 h20.625c1.76,0,3.188,1.427,3.188,3.188v19.625C57.5,55.073,56.073,56.5,54.312,56.5z"/><path fill="#472b29" d="M57.5 48.375c-.276 0-.5-.224-.5-.5V44c0-.276.224-.5.5-.5S58 43.724 58 44v3.875C58 48.151 57.776 48.375 57.5 48.375zM57.5 41.5c-.276 0-.5-.224-.5-.5v-2c0-.276.224-.5.5-.5S58 38.724 58 39v2C58 41.276 57.776 41.5 57.5 41.5z"/><path fill="#b07454" d="M54.312,56.5c1.574,0,2.874-1.144,3.133-2.645L47,41l-7,7v8.5H54.312z"/><path fill="#472b29" d="M54.313,56.75H39.75v-8.854l7.269-7.27l10.692,13.159l-0.019,0.112 C57.407,55.551,55.985,56.75,54.313,56.75z M40.25,56.25h14.063c1.392,0,2.579-0.972,2.865-2.327l-10.197-12.55l-6.731,6.73V56.25 z"/><path fill="#fef6aa" d="M51.5 34A2.5 2.5 0 1 0 51.5 39A2.5 2.5 0 1 0 51.5 34Z"/><path fill="#472b29" d="M54 36.75c-.138 0-.25-.112-.25-.25 0-.463-.14-.908-.404-1.287-.079-.112-.051-.269.062-.348.112-.077.268-.053.348.063.323.463.494 1.007.494 1.572C54.25 36.638 54.138 36.75 54 36.75zM51.5 39.25c-1.517 0-2.75-1.233-2.75-2.75s1.233-2.75 2.75-2.75c.426 0 .835.095 1.216.282.124.062.175.211.114.335-.061.126-.211.176-.334.114-.312-.153-.646-.231-.995-.231-1.241 0-2.25 1.01-2.25 2.25s1.009 2.25 2.25 2.25c.748 0 1.446-.371 1.866-.992.078-.116.233-.144.347-.067.114.077.145.232.067.347C53.267 38.797 52.415 39.25 51.5 39.25z"/><path fill="#d38b5d" d="M43.866,49.451L37,41l-6.5,6.5v5.813c0,1.76,1.427,3.188,3.187,3.188h15.906l-2.102-2.587"/><path fill="#472b29" d="M50.119,56.75H33.688c-1.896,0-3.438-1.542-3.438-3.438v-5.916l6.769-6.77l7.041,8.666 c0.087,0.106,0.071,0.265-0.036,0.352c-0.107,0.085-0.266,0.07-0.352-0.037l-6.691-8.234l-6.231,6.23v5.709 c0,1.62,1.318,2.938,2.938,2.938h15.381l-1.771-2.18c-0.087-0.106-0.071-0.265,0.036-0.352c0.106-0.086,0.264-0.072,0.352,0.037 L50.119,56.75z"/><g><path fill="#d38b5d" d="M46.501 52.693L44.633 50.394"/><path fill="#472b29" d="M46.5,52.943c-0.073,0-0.145-0.031-0.194-0.093l-1.868-2.299c-0.087-0.106-0.071-0.265,0.036-0.352 s0.264-0.072,0.352,0.037l1.868,2.299c0.087,0.106,0.071,0.265-0.036,0.352C46.612,52.925,46.556,52.943,46.5,52.943z"/></g><g><path fill="#472b29" d="M54.313,57H33.688C31.654,57,30,55.346,30,53.313V39.167c0-0.276,0.224-0.5,0.5-0.5 s0.5,0.224,0.5,0.5v14.146C31,54.794,32.206,56,33.688,56h20.625C55.794,56,57,54.794,57,53.313v-3.125c0-0.276,0.224-0.5,0.5-0.5 s0.5,0.224,0.5,0.5v3.125C58,55.346,56.346,57,54.313,57z"/></g><g><path fill="#472b29" d="M30.5,37.125c-0.276,0-0.5-0.224-0.5-0.5v-2.938C30,31.654,31.654,30,33.688,30h20.625 C56.346,30,58,31.654,58,33.688V36.5c0,0.276-0.224,0.5-0.5,0.5S57,36.776,57,36.5v-2.813C57,32.206,55.794,31,54.313,31H33.688 C32.206,31,31,32.206,31,33.688v2.938C31,36.901,30.776,37.125,30.5,37.125z"/></g></g></svg>